<svg xmlns="http://www.w3.org/2000/svg" viewBox="0 0 1400 750" width="1400" height="750">
  <defs>
    <linearGradient id="bgGrad" x1="0%" y1="0%" x2="0%" y2="100%">
      <stop offset="0%" style="stop-color:#0a0f1a;stop-opacity:1" />
      <stop offset="100%" style="stop-color:#0d1525;stop-opacity:1" />
    </linearGradient>
    <linearGradient id="tankGrad" x1="0%" y1="0%" x2="100%" y2="0%">
      <stop offset="0%" style="stop-color:#1a2535;stop-opacity:1" />
      <stop offset="50%" style="stop-color:#243447;stop-opacity:1" />
      <stop offset="100%" style="stop-color:#1a2535;stop-opacity:1" />
    </linearGradient>
    <linearGradient id="vesselGrad" x1="0%" y1="0%" x2="100%" y2="0%">
      <stop offset="0%" style="stop-color:#1e2d3d;stop-opacity:1" />
      <stop offset="50%" style="stop-color:#2a3d50;stop-opacity:1" />
      <stop offset="100%" style="stop-color:#1e2d3d;stop-opacity:1" />
    </linearGradient>
    <linearGradient id="liquidGrad" x1="0%" y1="0%" x2="0%" y2="100%">
      <stop offset="0%" style="stop-color:#00d4ff;stop-opacity:0.3" />
      <stop offset="100%" style="stop-color:#0099cc;stop-opacity:0.5" />
    </linearGradient>
    <linearGradient id="productGrad" x1="0%" y1="0%" x2="0%" y2="100%">
      <stop offset="0%" style="stop-color:#00ff88;stop-opacity:0.3" />
      <stop offset="100%" style="stop-color:#00cc66;stop-opacity:0.5" />
    </linearGradient>
    <linearGradient id="pipeGrad" x1="0%" y1="0%" x2="100%" y2="0%">
      <stop offset="0%" style="stop-color:#4a90a4;stop-opacity:0.7" />
      <stop offset="50%" style="stop-color:#6ab7d4;stop-opacity:0.9" />
      <stop offset="100%" style="stop-color:#4a90a4;stop-opacity:0.7" />
    </linearGradient>
    <linearGradient id="pipeGradV" x1="0%" y1="0%" x2="0%" y2="100%">
      <stop offset="0%" style="stop-color:#4a90a4;stop-opacity:0.7" />
      <stop offset="50%" style="stop-color:#6ab7d4;stop-opacity:0.9" />
      <stop offset="100%" style="stop-color:#4a90a4;stop-opacity:0.7" />
    </linearGradient>
    <filter id="tankShadow" x="-20%" y="-20%" width="140%" height="140%">
      <feDropShadow dx="0" dy="2" stdDeviation="4" flood-color="#000" flood-opacity="0.4"/>
    </filter>
    <filter id="glow" x="-50%" y="-50%" width="200%" height="200%">
      <feGaussianBlur stdDeviation="3" result="coloredBlur"/>
      <feMerge>
        <feMergeNode in="coloredBlur"/>
        <feMergeNode in="SourceGraphic"/>
      </feMerge>
    </filter>
    <pattern id="grid" width="20" height="20" patternUnits="userSpaceOnUse">
      <path d="M 20 0 L 0 0 0 20" fill="none" stroke="#1a2535" stroke-width="0.5"/>
    </pattern>
  </defs>

  <style>
    .pipe-flow {
      stroke-dasharray: 10, 5;
      animation: flowAnim 1s linear infinite;
    }
    @keyframes flowAnim {
      from { stroke-dashoffset: 15; }
      to { stroke-dashoffset: 0; }
    }
    .pulse-slow {
      animation: pulseAnim 3s ease-in-out infinite;
    }
    @keyframes pulseAnim {
      0%, 100% { opacity: 0.5; }
      50% { opacity: 0.8; }
    }
    .wave {
      animation: waveAnim 2.5s ease-in-out infinite;
    }
    @keyframes waveAnim {
      0%, 100% { transform: translateY(0); }
      50% { transform: translateY(-2px); }
    }
    .motor-spin {
      animation: motorSpin 2s linear infinite;
      transform-origin: center;
    }
    @keyframes motorSpin {
      from { transform: rotate(0deg); }
      to { transform: rotate(360deg); }
    }
    .impeller {
      transform-origin: center;
    }
    .impeller.spinning {
      animation: impellerSpin 0.5s linear infinite;
    }
    @keyframes impellerSpin {
      from { transform: rotate(0deg); }
      to { transform: rotate(360deg); }
    }
  </style>

  <rect width="100%" height="100%" fill="url(#bgGrad)"/>
  <rect width="100%" height="100%" fill="url(#grid)" opacity="0.3"/>

  <text x="700" y="35" text-anchor="middle" fill="#6ab7d4" font-size="24" font-weight="bold" font-family="Arial, sans-serif" letter-spacing="2">P&amp;ID - 工艺流程图</text>
  <line x1="200" y1="50" x2="1200" y2="50" stroke="#4a90a4" stroke-width="1" opacity="0.5"/>

  <g id="pipelines">
    <path d="M 145 280 L 220 280" stroke="url(#pipeGrad)" stroke-width="4" fill="none" class="pipe-flow"/>
    <path d="M 145 480 L 220 480" stroke="url(#pipeGrad)" stroke-width="4" fill="none" class="pipe-flow"/>
    <path d="M 280 280 L 350 280" stroke="url(#pipeGrad)" stroke-width="4" fill="none" class="pipe-flow"/>
    <path d="M 280 480 L 350 480" stroke="url(#pipeGrad)" stroke-width="4" fill="none" class="pipe-flow"/>
    <path d="M 410 280 L 480 280" stroke="url(#pipeGrad)" stroke-width="4" fill="none" class="pipe-flow"/>
    <path d="M 410 480 L 480 380" stroke="url(#pipeGrad)" stroke-width="4" fill="none" class="pipe-flow"/>
    <path d="M 540 330 L 620 330" stroke="url(#pipeGrad)" stroke-width="4" fill="none" class="pipe-flow"/>
    <path d="M 690 330 L 780 330" stroke="url(#pipeGrad)" stroke-width="4" fill="none" class="pipe-flow"/>
    <path d="M 870 330 L 950 330" stroke="url(#pipeGrad)" stroke-width="4" fill="none" class="pipe-flow"/>
    <path d="M 1050 330 L 1120 330" stroke="url(#pipeGrad)" stroke-width="4" fill="none" class="pipe-flow"/>
    <path d="M 620 400 L 620 480 L 700 500" stroke="url(#pipeGradV)" stroke-width="3" fill="none" class="pipe-flow"/>
    <path d="M 540 430 L 540 500 L 480 500" stroke="url(#pipeGradV)" stroke-width="3" fill="none"/>
  </g>

  <g id="tankA" transform="translate(80, 200)" filter="url(#tankShadow)">
    <ellipse cx="65" cy="0" rx="55" ry="15" fill="#2a3d50" stroke="#6ab7d4" stroke-width="2"/>
    <rect x="10" y="0" width="110" height="80" fill="url(#tankGrad)" stroke="#6ab7d4" stroke-width="2"/>
    <ellipse cx="65" cy="80" rx="55" ry="15" fill="#1a2535" stroke="#6ab7d4" stroke-width="2"/>
    <rect x="15" y="20" width="100" height="50" fill="url(#liquidGrad)" class="pulse-slow"/>
    <path class="wave" d="M 15 25 Q 40 20 65 25 Q 90 30 115 25" fill="none" stroke="#6ab7d4" stroke-width="1.5" opacity="0.6"/>
    <text x="65" y="130" text-anchor="middle" fill="#fff" font-size="12" font-weight="bold">TK-101</text>
    <text x="65" y="145" text-anchor="middle" fill="#6ab7d4" font-size="10">原料罐A</text>
    <text x="65" y="160" text-anchor="middle" fill="#4a90a4" font-size="9">LT 75%</text>
  </g>

  <g id="tankB" transform="translate(80, 400)" filter="url(#tankShadow)">
    <ellipse cx="65" cy="0" rx="55" ry="15" fill="#2a3d50" stroke="#6ab7d4" stroke-width="2"/>
    <rect x="10" y="0" width="110" height="80" fill="url(#tankGrad)" stroke="#6ab7d4" stroke-width="2"/>
    <ellipse cx="65" cy="80" rx="55" ry="15" fill="#1a2535" stroke="#6ab7d4" stroke-width="2"/>
    <rect x="15" y="25" width="100" height="45" fill="url(#liquidGrad)" class="pulse-slow"/>
    <path class="wave" d="M 15 30 Q 40 25 65 30 Q 90 35 115 30" fill="none" stroke="#6ab7d4" stroke-width="1.5" opacity="0.6"/>
    <text x="65" y="130" text-anchor="middle" fill="#fff" font-size="12" font-weight="bold">TK-102</text>
    <text x="65" y="145" text-anchor="middle" fill="#6ab7d4" font-size="10">原料罐B</text>
    <text x="65" y="160" text-anchor="middle" fill="#4a90a4" font-size="9">LT 60%</text>
  </g>

  <g id="motor1" transform="translate(230, 255)">
    <circle cx="25" cy="25" r="22" fill="#1a2535" stroke="#6ab7d4" stroke-width="2"/>
    <line x1="10" y1="10" x2="40" y2="40" stroke="#6ab7d4" stroke-width="2"/>
    <line x1="10" y1="40" x2="40" y2="10" stroke="#6ab7d4" stroke-width="2"/>
    <text x="25" y="60" text-anchor="middle" fill="#fff" font-size="10">M-101</text>
    <text x="25" y="72" text-anchor="middle" fill="#4a90a4" font-size="8">电机</text>
  </g>

  <g id="motor2" transform="translate(230, 455)">
    <circle cx="25" cy="25" r="22" fill="#1a2535" stroke="#6ab7d4" stroke-width="2"/>
    <line x1="10" y1="10" x2="40" y2="40" stroke="#6ab7d4" stroke-width="2"/>
    <line x1="10" y1="40" x2="40" y2="10" stroke="#6ab7d4" stroke-width="2"/>
    <text x="25" y="60" text-anchor="middle" fill="#fff" font-size="10">M-102</text>
    <text x="25" y="72" text-anchor="middle" fill="#4a90a4" font-size="8">电机</text>
  </g>

  <g id="pump1" transform="translate(280, 245)">
    <circle cx="25" cy="25" r="20" fill="#0d1525" stroke="#6ab7d4" stroke-width="2"/>
    <polygon points="25,8 38,25 25,42 12,25" fill="none" stroke="#6ab7d4" stroke-width="1.5" class="impeller"/>
    <text x="25" y="60" text-anchor="middle" fill="#fff" font-size="10">P-101</text>
    <text x="25" y="72" text-anchor="middle" fill="#4a90a4" font-size="8">泵</text>
  </g>

  <g id="pump2" transform="translate(280, 445)">
    <circle cx="25" cy="25" r="20" fill="#0d1525" stroke="#6ab7d4" stroke-width="2"/>
    <polygon points="25,8 38,25 25,42 12,25" fill="none" stroke="#6ab7d4" stroke-width="1.5" class="impeller"/>
    <text x="25" y="60" text-anchor="middle" fill="#fff" font-size="10">P-102</text>
    <text x="25" y="72" text-anchor="middle" fill="#4a90a4" font-size="8">泵</text>
  </g>

  <g id="valve1" transform="translate(355, 260)">
    <polygon points="20,0 40,20 20,40 0,20" fill="#1a2535" stroke="#6ab7d4" stroke-width="2"/>
    <circle cx="20" cy="20" r="8" fill="#0d1525" stroke="#6ab7d4" stroke-width="1"/>
    <line x1="20" y1="5" x2="20" y2="35" stroke="#6ab7d4" stroke-width="2"/>
    <text x="20" y="55" text-anchor="middle" fill="#fff" font-size="9">FV-101</text>
    <text x="20" y="67" text-anchor="middle" fill="#4a90a4" font-size="8">调节阀</text>
  </g>

  <g id="valve2" transform="translate(355, 460)">
    <polygon points="20,0 40,20 20,40 0,20" fill="#1a2535" stroke="#6ab7d4" stroke-width="2"/>
    <circle cx="20" cy="20" r="8" fill="#0d1525" stroke="#6ab7d4" stroke-width="1"/>
    <line x1="20" y1="5" x2="20" y2="35" stroke="#6ab7d4" stroke-width="2"/>
    <text x="20" y="55" text-anchor="middle" fill="#fff" font-size="9">FV-102</text>
    <text x="20" y="67" text-anchor="middle" fill="#4a90a4" font-size="8">调节阀</text>
  </g>

  <g id="mixer" transform="translate(420, 240)">
    <rect x="0" y="0" width="60" height="80" fill="url(#vesselGrad)" stroke="#6ab7d4" stroke-width="2" rx="5"/>
    <circle cx="30" cy="40" r="25" fill="#0d1525" stroke="#6ab7d4" stroke-width="1.5"/>
    <line x1="30" y1="15" x2="30" y2="65" stroke="#6ab7d4" stroke-width="1.5" stroke-dasharray="4,2"/>
    <line x1="5" y1="40" x2="55" y2="40" stroke="#6ab7d4" stroke-width="1.5" stroke-dasharray="4,2"/>
    <circle cx="30" cy="40" r="5" fill="#6ab7d4"/>
    <text x="30" y="100" text-anchor="middle" fill="#fff" font-size="11">MX-101</text>
    <text x="30" y="115" text-anchor="middle" fill="#4a90a4" font-size="9">混合器</text>
  </g>

  <g id="reactor" transform="translate(620, 200)" filter="url(#tankShadow)">
    <ellipse cx="70" cy="20" rx="60" ry="18" fill="#2a3d50" stroke="#6ab7d4" stroke-width="2"/>
    <rect x="10" y="20" width="120" height="130" fill="url(#vesselGrad)" stroke="#6ab7d4" stroke-width="2"/>
    <ellipse cx="70" cy="150" rx="60" ry="18" fill="#1a2535" stroke="#6ab7d4" stroke-width="2"/>
    <rect x="15" y="60" width="110" height="70" fill="url(#liquidGrad)" class="pulse-slow"/>
    <path class="wave" d="M 15 65 Q 45 60 70 65 Q 95 70 125 65" fill="none" stroke="#6ab7d4" stroke-width="1.5" opacity="0.5"/>
    <g transform="translate(-35, 0)">
      <circle cx="20" cy="25" r="18" fill="#1a2535" stroke="#6ab7d4" stroke-width="2"/>
      <line x1="7" y1="7" x2="33" y2="43" stroke="#6ab7d4" stroke-width="2"/>
      <line x1="7" y1="43" x2="33" y2="7" stroke="#6ab7d4" stroke-width="2"/>
      <text x="20" y="55" text-anchor="middle" fill="#fff" font-size="9">M-103</text>
    </g>
    <text x="70" y="185" text-anchor="middle" fill="#fff" font-size="14" font-weight="bold">R-101</text>
    <text x="70" y="200" text-anchor="middle" fill="#4a90a4" font-size="9">TT 25°C PT 1.0atm</text>
  </g>

  <g id="heatExchanger" transform="translate(620, 420)">
    <rect x="0" y="0" width="80" height="50" fill="#1a2535" stroke="#6ab7d4" stroke-width="2" rx="3"/>
    <line x1="10" y1="10" x2="70" y2="10" stroke="#6ab7d4" stroke-width="1"/>
    <line x1="10" y1="25" x2="70" y2="25" stroke="#6ab7d4" stroke-width="1"/>
    <line x1="10" y1="40" x2="70" y2="40" stroke="#6ab7d4" stroke-width="1"/>
    <line x1="10" y1="10" x2="10" y2="40" stroke="#6ab7d4" stroke-width="1"/>
    <line x1="40" y1="10" x2="40" y2="40" stroke="#6ab7d4" stroke-width="1"/>
    <line x1="70" y1="10" x2="70" y2="40" stroke="#6ab7d4" stroke-width="1"/>
    <text x="40" y="65" text-anchor="middle" fill="#fff" font-size="10">E-101</text>
    <text x="40" y="78" text-anchor="middle" fill="#4a90a4" font-size="8">换热器</text>
  </g>

  <g id="separator" transform="translate(780, 240)" filter="url(#tankShadow)">
    <rect x="0" y="0" width="90" height="100" fill="url(#vesselGrad)" stroke="#6ab7d4" stroke-width="2" rx="5"/>
    <line x1="0" y1="50" x2="90" y2="50" stroke="#6ab7d4" stroke-width="1" stroke-dasharray="5,3"/>
    <circle cx="45" cy="25" r="15" fill="#0d1525" stroke="#6ab7d4" stroke-width="1.5"/>
    <circle cx="45" cy="25" r="6" fill="#6ab7d4" opacity="0.5"/>
    <circle cx="45" cy="75" r="15" fill="#0d1525" stroke="#6ab7d4" stroke-width="1.5"/>
    <circle cx="45" cy="75" r="6" fill="#6ab7d4" opacity="0.5"/>
    <text x="45" y="120" text-anchor="middle" fill="#fff" font-size="12">V-101</text>
    <text x="45" y="135" text-anchor="middle" fill="#4a90a4" font-size="9">分离器</text>
  </g>

  <g id="controlValve" transform="translate(870, 305)">
    <polygon points="20,0 40,20 20,40 0,20" fill="#1a2535" stroke="#6ab7d4" stroke-width="2"/>
    <circle cx="20" cy="20" r="8" fill="#0d1525" stroke="#6ab7d4" stroke-width="1"/>
    <line x1="20" y1="5" x2="20" y2="35" stroke="#6ab7d4" stroke-width="2"/>
    <text x="20" y="55" text-anchor="middle" fill="#fff" font-size="9">CV-101</text>
    <text x="20" y="67" text-anchor="middle" fill="#4a90a4" font-size="8">控制阀</text>
  </g>

  <g id="productTank" transform="translate(950, 230)" filter="url(#tankShadow)">
    <ellipse cx="50" cy="0" rx="45" ry="12" fill="#2a3d50" stroke="#00ff88" stroke-width="2"/>
    <rect x="5" y="0" width="90" height="100" fill="url(#tankGrad)" stroke="#00ff88" stroke-width="2"/>
    <ellipse cx="50" cy="100" rx="45" ry="12" fill="#1a2535" stroke="#00ff88" stroke-width="2"/>
    <rect x="10" y="25" width="80" height="60" fill="url(#productGrad)" class="pulse-slow"/>
    <path class="wave" d="M 10 30 Q 35 25 50 30 Q 65 35 90 30" fill="none" stroke="#00ff88" stroke-width="1.5" opacity="0.6"/>
    <text x="50" y="130" text-anchor="middle" fill="#fff" font-size="12" font-weight="bold">TK-103</text>
    <text x="50" y="145" text-anchor="middle" fill="#00ff88" font-size="10">成品罐</text>
    <text x="50" y="158" text-anchor="middle" fill="#4a90a4" font-size="9">FT 30%</text>
  </g>

  <g id="storageTank" transform="translate(1120, 250)">
    <ellipse cx="40" cy="0" rx="35" ry="10" fill="#2a3d50" stroke="#6ab7d4" stroke-width="2"/>
    <path d="M 5 0 L 5 80 Q 5 95 40 95 Q 75 95 75 80 L 75 0" fill="url(#tankGrad)" stroke="#6ab7d4" stroke-width="2"/>
    <rect x="10" y="15" width="60" height="55" fill="url(#liquidGrad)" class="pulse-slow"/>
    <text x="40" y="115" text-anchor="middle" fill="#fff" font-size="11">TK-104</text>
    <text x="40" y="130" text-anchor="middle" fill="#4a90a4" font-size="9">储罐</text>
  </g>

  <g id="handValve1" transform="translate(960, 400)">
    <rect x="0" y="10" width="25" height="20" fill="#1a2535" stroke="#6ab7d4" stroke-width="2" rx="2"/>
    <circle cx="12" cy="20" r="6" fill="#0d1525" stroke="#6ab7d4" stroke-width="1"/>
    <text x="12" y="45" text-anchor="middle" fill="#fff" font-size="8">HV-1</text>
  </g>

  <g id="checkValve" transform="translate(700, 475)">
    <rect x="0" y="8" width="30" height="14" fill="#1a2535" stroke="#6ab7d4" stroke-width="2" rx="2"/>
    <polygon points="15,8 22,15 8,15" fill="#6ab7d4"/>
    <text x="15" y="40" text-anchor="middle" fill="#fff" font-size="8">CV-2</text>
    <text x="15" y="52" text-anchor="middle" fill="#4a90a4" font-size="7">止回阀</text>
  </g>

  <g id="instrument1" transform="translate(480, 245)">
    <circle cx="0" cy="0" r="8" fill="#0d1525" stroke="#f0ad4e" stroke-width="1.5"/>
    <text x="0" y="3" text-anchor="middle" fill="#f0ad4e" font-size="8" font-weight="bold">FT</text>
    <text x="0" y="20" text-anchor="middle" fill="#f0ad4e" font-size="7">10 L/s</text>
  </g>

  <g id="instrument2" transform="translate(700, 305)">
    <circle cx="0" cy="0" r="8" fill="#0d1525" stroke="#f0ad4e" stroke-width="1.5"/>
    <text x="0" y="3" text-anchor="middle" fill="#f0ad4e" font-size="8" font-weight="bold">TT</text>
    <text x="0" y="20" text-anchor="middle" fill="#f0ad4e" font-size="7">25°C</text>
  </g>

  <g id="instrument3" transform="translate(1050, 305)">
    <circle cx="0" cy="0" r="8" fill="#0d1525" stroke="#f0ad4e" stroke-width="1.5"/>
    <text x="0" y="3" text-anchor="middle" fill="#f0ad4e" font-size="8" font-weight="bold">FT</text>
    <text x="0" y="20" text-anchor="middle" fill="#f0ad4e" font-size="7">18 L/s</text>
  </g>

  <g id="controlPanel" transform="translate(80, 580)">
    <rect x="0" y="0" width="1240" height="130" fill="#0d1525" stroke="#4a90a4" stroke-width="2" rx="8"/>
    <text x="620" y="22" text-anchor="middle" fill="#6ab7d4" font-size="14" font-weight="bold" letter-spacing="2">控制系统</text>
    <line x1="20" y1="35" x2="1220" y2="35" stroke="#4a90a4" stroke-width="1" opacity="0.3"/>

    <g transform="translate(60, 50)">
      <rect x="0" y="0" width="90" height="55" fill="#00cc66" stroke="#00ff88" stroke-width="2" rx="6"/>
      <polygon points="35,15 35,40 55,27" fill="#fff"/>
      <text x="45" y="70" text-anchor="middle" fill="#00ff88" font-size="11">启动</text>
    </g>

    <g transform="translate(190, 50)">
      <rect x="0" y="0" width="90" height="55" fill="#cc3a4a" stroke="#ff4757" stroke-width="2" rx="6"/>
      <rect x="32" y="18" width="26" height="18" fill="#fff" rx="2"/>
      <text x="45" y="70" text-anchor="middle" fill="#ff4757" font-size="11">停止</text>
    </g>

    <g transform="translate(320, 50)">
      <rect x="0" y="0" width="90" height="55" fill="#1a5a7a" stroke="#6ab7d4" stroke-width="2" rx="6"/>
      <path d="M 45 18 A 12 12 0 1 1 32 26" fill="none" stroke="#fff" stroke-width="2.5"/>
      <polygon points="32,26 28,32 38,30" fill="#fff"/>
      <text x="45" y="70" text-anchor="middle" fill="#6ab7d4" font-size="11">复位</text>
    </g>

    <g transform="translate(480, 45)">
      <rect x="0" y="0" width="720" height="75" fill="#0a0f1a" stroke="#4a90a4" stroke-width="1" rx="5"/>
      <text x="360" y="16" text-anchor="middle" fill="#6ab7d4" font-size="11" font-weight="bold">实时数据监控</text>
      <line x1="10" y1="25" x2="710" y2="25" stroke="#4a90a4" stroke-width="0.5" opacity="0.3"/>

      <g transform="translate(15, 35)">
        <text x="0" y="0" fill="#8090a0" font-size="9">TK-101:</text>
        <text x="55" y="0" fill="#00ff88" font-size="11" font-weight="bold">75%</text>
        <text x="95" y="0" fill="#8090a0" font-size="9">TK-102:</text>
        <text x="145" y="0" fill="#00ff88" font-size="11" font-weight="bold">60%</text>
        <text x="185" y="0" fill="#8090a0" font-size="9">流量:</text>
        <text x="220" y="0" fill="#6ab7d4" font-size="11" font-weight="bold">18 L/s</text>
      </g>
      <g transform="translate(15, 52)">
        <text x="0" y="0" fill="#8090a0" font-size="9">R-101 温度:</text>
        <text x="70" y="0" fill="#f0ad4e" font-size="11" font-weight="bold">25°C</text>
        <text x="115" y="0" fill="#8090a0" font-size="9">压力:</text>
        <text x="150" y="0" fill="#f0ad4e" font-size="11" font-weight="bold">1.0 atm</text>
        <text x="205" y="0" fill="#8090a0" font-size="9">M-103:</text>
        <text x="245" y="0" fill="#00ff88" font-size="11" font-weight="bold">0 RPM</text>
      </g>
      <g transform="translate(380, 35)">
        <text x="0" y="0" fill="#8090a0" font-size="9">V-101:</text>
        <text x="50" y="0" fill="#6ab7d4" font-size="11" font-weight="bold">50%</text>
        <text x="90" y="0" fill="#8090a0" font-size="9">TK-103:</text>
        <text x="135" y="0" fill="#00ff88" font-size="11" font-weight="bold">30%</text>
        <text x="175" y="0" fill="#8090a0" font-size="9">产量:</text>
        <text x="210" y="0" fill="#00ff88" font-size="11" font-weight="bold">0</text>
      </g>
      <g transform="translate(380, 52)">
        <text x="0" y="0" fill="#8090a0" font-size="9">运行时长:</text>
        <text x="65" y="0" fill="#6ab7d4" font-size="11" font-weight="bold">00:00:00</text>
        <text x="130" y="0" fill="#8090a0" font-size="9">生产总量:</text>
        <text x="195" y="0" fill="#00ff88" font-size="11" font-weight="bold">0</text>
      </g>
    </g>

    <g transform="translate(1220, 50)">
      <circle cx="10" cy="10" r="5" fill="#808080" id="alarmLed"/>
      <text x="10" y="30" text-anchor="middle" fill="#808080" font-size="9">正常</text>
    </g>
  </g>

  <g id="legend" transform="translate(1180, 60)">
    <rect x="0" y="0" width="150" height="130" fill="#0d1525" stroke="#4a90a4" stroke-width="1" rx="5"/>
    <text x="75" y="18" text-anchor="middle" fill="#6ab7d4" font-size="10" font-weight="bold">图例</text>
    <line x1="10" y1="28" x2="140" y2="28" stroke="#4a90a4" stroke-width="0.5" opacity="0.3"/>

    <circle cx="20" cy="45" r="6" fill="none" stroke="#6ab7d4" stroke-width="1.5"/>
    <line x1="14" y1="39" x2="26" y2="51" stroke="#6ab7d4" stroke-width="1.5"/>
    <line x1="14" y1="51" x2="26" y2="39" stroke="#6ab7d4" stroke-width="1.5"/>
    <text x="35" y="49" fill="#8090a0" font-size="9">电机</text>

    <polygon points="20,60 30,67 20,74 10,67" fill="none" stroke="#6ab7d4" stroke-width="1.5"/>
    <text x="35" y="71" fill="#8090a0" font-size="9">调节阀</text>

    <circle cx="20" cy="90" r="6" fill="none" stroke="#6ab7d4" stroke-width="1.5"/>
    <polygon points="20,84 27,90 20,96 13,90" fill="none" stroke="#6ab7d4" stroke-width="1"/>
    <text x="35" y="94" fill="#8090a0" font-size="9">泵</text>

    <rect x="10" y="102" width="20" height="14" fill="none" stroke="#6ab7d4" stroke-width="1.5" rx="1"/>
    <text x="35" y="113" fill="#8090a0" font-size="9">储罐</text>

    <circle cx="90" cy="45" r="6" fill="#0d1525" stroke="#f0ad4e" stroke-width="1.5"/>
    <text x="100" y="49" fill="#8090a0" font-size="9">仪表</text>

    <line x1="80" y1="67" x2="110" y2="67" stroke="#6ab7d4" stroke-width="2" stroke-dasharray="4,2"/>
    <text x="115" y="71" fill="#8090a0" font-size="9">管道</text>

    <rect x="85" y="88" width="18" height="12" fill="#1a2535" stroke="#6ab7d4" stroke-width="1" rx="1"/>
    <text x="108" y="97" fill="#8090a0" font-size="8">手阀</text>
  </g>

  <g id="statusIndicator" transform="translate(1050, 60)">
    <rect x="0" y="0" width="120" height="50" fill="#0d1525" stroke="#4a90a4" stroke-width="1" rx="5"/>
    <text x="60" y="16" text-anchor="middle" fill="#8090a0" font-size="9">系统状态</text>
    <circle cx="25" cy="35" r="8" fill="#808080" id="statusLed"/>
    <text x="45" y="39" fill="#808080" font-size="11" font-weight="bold">STANDBY</text>
  </g>
</svg>